<?xml version="1.0" encoding="UTF-8"?>
<svg id="Layer_1" data-name="Layer 1" xmlns="http://www.w3.org/2000/svg" viewBox="0 0 512 512">
  <defs>
    <style>
      .cls-1 {
        fill: #0e172b;
      }

      .cls-2 {
        fill: #f5f5f5;
      }
    </style>
  </defs>
  <rect class="cls-1" y="0" width="512" height="512"/>
  <g>
    <polygon class="cls-1" points="447.06 144.21 133.48 144.21 133.48 197.35 226.72 197.35 226.72 364.21 65.35 364.21 65.35 417.36 447.06 417.36 447.06 364.21 279.86 364.21 279.86 197.35 447.06 197.35 447.06 144.21"/>
    <rect class="cls-1" x="225.72" y="64.74" width="55.15" height="55.15"/>
    <path class="cls-1" d="M92.93,198.36h0c15.23,0,27.58-12.35,27.58-27.58h0c0-15.23-12.35-27.58-27.58-27.58h0c-15.23,0-27.58,12.35-27.58,27.58h0c0,15.23,12.35,27.58,27.58,27.58Z"/>
    <path class="cls-1" d="M214.85,310.31c0-10.57-4.91-19.98-12.87-24.21-5.25-3.07-9.48-4.22-19.13-5.18,9.31-2.3,13.71-4.22,18.96-8.26,7.79-5.96,12.19-15.38,12.19-25.75,0-8.84-5.22-15.68-11.31-21.43-6.09-5.57-25.41-9.12-36.24-9.12h-101.1v128.15h107.34c25.57,0,42.16-13.45,42.16-34.2ZM123.43,250.18h21.67c7.95,0,10.84,2.5,10.84,9.42s-2.88,9.6-10.84,9.6h-21.67v-19.02ZM147.97,313.76h-24.55v-18.83h24.55c7.28,0,9.99,2.69,9.99,9.42s-2.87,9.42-9.99,9.42Z"/>
    <polygon class="cls-1" points="446.64 344.5 446.64 214.45 385.79 214.45 385.79 262.78 355.27 262.78 355.27 214.45 294.43 214.45 294.43 344.5 355.27 344.5 355.27 303.35 385.79 303.35 385.79 344.5 446.64 344.5"/>
  </g>
  <g>
    <polygon class="cls-2" points="447.06 144.21 133.48 144.21 133.48 197.35 226.72 197.35 226.72 364.21 65.35 364.21 65.35 417.36 447.06 417.36 447.06 364.21 279.86 364.21 279.86 197.35 447.06 197.35 447.06 144.21"/>
    <rect class="cls-2" x="225.72" y="64.74" width="55.15" height="55.15"/>
    <path class="cls-2" d="M92.93,198.36h0c15.23,0,27.58-12.35,27.58-27.58h0c0-15.23-12.35-27.58-27.58-27.58h0c-15.23,0-27.58,12.35-27.58,27.58h0c0,15.23,12.35,27.58,27.58,27.58Z"/>
    <path class="cls-2" d="M214.85,310.31c0-10.57-4.91-19.98-12.87-24.21-5.25-3.07-9.48-4.22-19.13-5.18,9.31-2.3,13.71-4.22,18.96-8.26,7.79-5.96,12.19-15.38,12.19-25.75,0-8.84-5.22-15.68-11.31-21.43-6.09-5.57-25.41-9.12-36.24-9.12h-101.1v128.15h107.34c25.57,0,42.16-13.45,42.16-34.2ZM123.43,250.18h21.67c7.95,0,10.84,2.5,10.84,9.42s-2.88,9.6-10.84,9.6h-21.67v-19.02ZM147.97,313.76h-24.55v-18.83h24.55c7.28,0,9.99,2.69,9.99,9.42s-2.87,9.42-9.99,9.42Z"/>
    <polygon class="cls-2" points="446.64 344.5 446.64 214.45 385.79 214.45 385.79 262.78 355.27 262.78 355.27 214.45 294.43 214.45 294.43 344.5 355.27 344.5 355.27 303.35 385.79 303.35 385.79 344.5 446.64 344.5"/>
  </g>
</svg>