<?xml version="1.0" encoding="UTF-8"?>
<svg id="Layer_1" data-name="Layer 1" xmlns="http://www.w3.org/2000/svg" viewBox="0 0 512 512">
  <defs>
    <style>
      .cls-1 {
        fill: #0e172b;
      }

      .cls-2 {
        fill: #f5f5f5;
      }

      .cls-3 {
        fill: #afafaf;
      }
    </style>
  </defs>
  <rect class="cls-2" y="0" width="512" height="512"/>
  <g>
    <polygon class="cls-3" points="480.52 131.45 116.55 131.45 116.55 193.13 224.77 193.13 224.77 386.79 37.48 386.79 37.48 448.47 480.52 448.47 480.52 386.79 286.46 386.79 286.46 193.13 480.52 193.13 480.52 131.45"/>
    <rect class="cls-3" x="223.61" y="39.21" width="64.01" height="64.01"/>
    <path class="cls-3" d="M69.49,194.29h0c17.68,0,32.01-14.33,32.01-32.01h0c0-17.68-14.33-32.01-32.01-32.01h0c-17.68,0-32.01,14.33-32.01,32.01h0c0,17.68,14.33,32.01,32.01,32.01Z"/>
    <path class="cls-3" d="M211,324.23c0-12.27-5.7-23.18-14.94-28.11-6.09-3.56-11-4.9-22.2-6.01,10.81-2.67,15.91-4.9,22.01-9.59,9.04-6.92,14.14-17.85,14.14-29.88,0-10.26-6.05-18.2-13.13-24.88-7.07-6.46-29.49-10.58-42.07-10.58H37.48v148.73h124.58c29.67,0,48.93-15.61,48.93-39.69ZM104.89,254.44h25.15c9.23,0,12.58,2.9,12.58,10.93s-3.34,11.15-12.58,11.15h-25.15v-22.08ZM133.38,328.24h-28.49v-21.86h28.49c8.45,0,11.59,3.12,11.59,10.93s-3.34,10.93-11.59,10.93Z"/>
    <polygon class="cls-3" points="480.02 363.91 480.02 212.97 409.4 212.97 409.4 269.06 373.98 269.06 373.98 212.97 303.36 212.97 303.36 363.91 373.98 363.91 373.98 316.15 409.4 316.15 409.4 363.91 480.02 363.91"/>
  </g>
  <g>
    <polygon class="cls-1" points="477.52 128.45 113.55 128.45 113.55 190.13 221.77 190.13 221.77 383.79 34.48 383.79 34.48 445.47 477.52 445.47 477.52 383.79 283.46 383.79 283.46 190.13 477.52 190.13 477.52 128.45"/>
    <rect class="cls-1" x="220.61" y="36.21" width="64.01" height="64.01"/>
    <path class="cls-1" d="M66.49,191.29h0c17.68,0,32.01-14.33,32.01-32.01h0c0-17.68-14.33-32.01-32.01-32.01h0c-17.68,0-32.01,14.33-32.01,32.01h0c0,17.68,14.33,32.01,32.01,32.01Z"/>
    <path class="cls-1" d="M208,321.23c0-12.27-5.7-23.18-14.94-28.11-6.09-3.56-11-4.9-22.2-6.01,10.81-2.67,15.91-4.9,22.01-9.59,9.04-6.92,14.14-17.85,14.14-29.88,0-10.26-6.05-18.2-13.13-24.88-7.07-6.46-29.49-10.58-42.07-10.58H34.48v148.73h124.58c29.67,0,48.93-15.61,48.93-39.69ZM101.89,251.44h25.15c9.23,0,12.58,2.9,12.58,10.93s-3.34,11.15-12.58,11.15h-25.15v-22.08ZM130.38,325.24h-28.49v-21.86h28.49c8.45,0,11.59,3.12,11.59,10.93s-3.34,10.93-11.59,10.93Z"/>
    <polygon class="cls-1" points="477.02 360.91 477.02 209.97 406.4 209.97 406.4 266.06 370.98 266.06 370.98 209.97 300.36 209.97 300.36 360.91 370.98 360.91 370.98 313.15 406.4 313.15 406.4 360.91 477.02 360.91"/>
  </g>
  <g>
    <polygon class="cls-1" points="477.52 128.45 113.55 128.45 113.55 190.13 221.77 190.13 221.77 383.79 34.48 383.79 34.48 445.47 477.52 445.47 477.52 383.79 283.46 383.79 283.46 190.13 477.52 190.13 477.52 128.45"/>
    <rect class="cls-1" x="220.61" y="36.21" width="64.01" height="64.01"/>
    <path class="cls-1" d="M66.49,191.29h0c17.68,0,32.01-14.33,32.01-32.01h0c0-17.68-14.33-32.01-32.01-32.01h0c-17.68,0-32.01,14.33-32.01,32.01h0c0,17.68,14.33,32.01,32.01,32.01Z"/>
    <path class="cls-1" d="M208,321.23c0-12.27-5.7-23.18-14.94-28.11-6.09-3.56-11-4.9-22.2-6.01,10.81-2.67,15.91-4.9,22.01-9.59,9.04-6.92,14.14-17.85,14.14-29.88,0-10.26-6.05-18.2-13.13-24.88-7.07-6.46-29.49-10.58-42.07-10.58H34.48v148.73h124.58c29.67,0,48.93-15.61,48.93-39.69ZM101.89,251.44h25.15c9.23,0,12.58,2.9,12.58,10.93s-3.34,11.15-12.58,11.15h-25.15v-22.08ZM130.38,325.24h-28.49v-21.86h28.49c8.45,0,11.59,3.12,11.59,10.93s-3.34,10.93-11.59,10.93Z"/>
    <polygon class="cls-1" points="477.02 360.91 477.02 209.97 406.4 209.97 406.4 266.06 370.98 266.06 370.98 209.97 300.36 209.97 300.36 360.91 370.98 360.91 370.98 313.15 406.4 313.15 406.4 360.91 477.02 360.91"/>
  </g>
</svg>