<?xml version="1.0" encoding="UTF-8"?>
<svg id="Layer_1" data-name="Layer 1" xmlns="http://www.w3.org/2000/svg" viewBox="0 0 665.03 250.19">
  <defs>
    <style>
      .cls-1 {
        fill: #0e172b;
      }
    </style>
  </defs>
  <path class="cls-1" d="M102.79,162.01c0-5.32-2.41-10.05-6.31-12.18-2.57-1.54-4.64-2.12-9.37-2.6,4.56-1.16,6.72-2.12,9.29-4.15,3.82-3,5.97-7.74,5.97-12.95,0-4.45-1.66-8.51-4.64-11.4-2.99-2.8-6.31-3.97-11.62-3.97H29.53v64.46h52.6c12.53,0,20.66-6.77,20.66-17.2ZM57.99,131.76h10.62c3.9,0,5.31,1.26,5.31,4.74s-1.41,4.83-5.31,4.83h-10.62v-9.57ZM70.02,163.75h-12.03v-9.47h12.03c3.57,0,4.89,1.35,4.89,4.74s-1.41,4.74-4.89,4.74Z"/>
  <polygon class="cls-1" points="180.45 135.43 180.45 114.75 116.99 114.75 116.99 179.21 180.45 179.21 180.45 162.3 145.44 162.3 145.44 156.89 180.45 156.89 180.45 141.42 145.44 141.42 145.44 135.43 180.45 135.43"/>
  <polygon class="cls-1" points="239.61 179.21 239.61 135.36 256.29 135.36 256.29 114.75 194.56 114.75 194.56 135.36 211.15 135.36 211.15 179.21 239.61 179.21"/>
  <polygon class="cls-1" points="270.05 114.75 270.05 179.21 322.74 179.21 322.74 159.4 298.51 159.4 298.51 114.75 270.05 114.75"/>
  <polygon class="cls-1" points="365.21 100.55 635.5 100.55 635.5 72.09 65.96 72.09 65.96 100.55 336.75 100.55 336.75 192.19 29.53 192.19 29.53 220.65 635.5 220.65 635.5 192.19 365.21 192.19 365.21 100.55"/>
  <polygon class="cls-1" points="452.39 179.21 452.39 114.75 423.93 114.75 423.93 137.56 409.66 137.56 409.66 114.75 381.2 114.75 381.2 179.21 409.66 179.21 409.66 159.21 423.93 159.21 423.93 179.21 452.39 179.21"/>
  <polygon class="cls-1" points="531.71 135.43 531.71 114.75 468.24 114.75 468.24 179.21 531.71 179.21 531.71 162.3 496.7 162.3 496.7 156.89 531.71 156.89 531.71 141.42 496.7 141.42 496.7 135.43 531.71 135.43"/>
  <polygon class="cls-1" points="599.49 114.75 590.78 146.07 582.15 114.75 546.48 114.75 546.48 179.21 573.36 179.21 573.36 147.13 583.06 179.21 598.58 179.21 608.29 146.07 608.29 179.21 635.5 179.21 635.5 114.75 599.49 114.75"/>
  <rect class="cls-1" x="336.21" y="29.53" width="29.53" height="29.53"/>
  <circle class="cls-1" cx="44.3" cy="86.32" r="14.77"/>
</svg>